<svg  id="visual" viewBox="0 0 900 600" width="900" height="600" xmlns="http://www.w3.org/2000/svg" xmlns:xlink="http://www.w3.org/1999/xlink" version="1.1"><g><g transform="translate(397 150)"><path d="M85.1 -30C96.5 7.2 82.2 50.4 52.6 71.8C23 93.1 -22 92.7 -52.8 70.7C-83.6 48.8 -100.2 5.4 -89 -31.6C-77.9 -68.5 -38.9 -99.1 -1 -98.8C36.9 -98.5 73.8 -67.2 85.1 -30Z" fill="#054fe6"></path></g><g transform="translate(132 509)"><path d="M87.4 -24.6C99.8 9.7 87.1 56 58.4 75.8C29.7 95.5 -15 88.8 -42.9 66.7C-70.7 44.7 -81.8 7.2 -71.9 -23.7C-61.9 -54.7 -31 -79.3 3.3 -80.3C37.5 -81.4 75 -59 87.4 -24.6Z" fill="#054fe6"></path></g><g transform="translate(702 197)"><path d="M76.2 -23.2C88.9 14.5 82.7 59.8 56.5 79.2C30.3 98.5 -15.8 91.9 -47 68.4C-78.2 44.8 -94.4 4.4 -84.1 -29.9C-73.8 -64.3 -36.9 -92.6 -2.6 -91.7C31.7 -90.9 63.4 -60.9 76.2 -23.2Z" fill="#054fe6" ></path></g></g></svg>