<svg id="visual" viewBox="0 0 900 600" width="900" height="600" xmlns="http://www.w3.org/2000/svg" xmlns:xlink="http://www.w3.org/1999/xlink" version="1.1"><rect x="0" y="0" width="900" height="600" fill="#FFFFFF"></rect><defs><linearGradient id="grad1_0" x1="33.3%" y1="100%" x2="100%" y2="0%"><stop offset="20%" stop-color="#ffffff" stop-opacity="1"></stop><stop offset="80%" stop-color="#ffffff" stop-opacity="1"></stop></linearGradient></defs><defs><linearGradient id="grad2_0" x1="0%" y1="100%" x2="66.7%" y2="0%"><stop offset="20%" stop-color="#ffffff" stop-opacity="1"></stop><stop offset="80%" stop-color="#ffffff" stop-opacity="1"></stop></linearGradient></defs><g transform="translate(900, 600)"><path d="M-513.8 0C-512.4 -110.7 -510.9 -221.3 -445 -256.9C-379 -292.5 -248.4 -252.9 -163.5 -283.2C-78.6 -313.5 -39.3 -413.6 0 -513.8L0 0Z" fill="#272829"></path></g><g transform="translate(0, 0)"><path d="M513.8 0C508.6 104.2 503.5 208.4 445 256.9C386.4 305.4 274.6 298.2 191.5 331.7C108.4 365.2 54.2 439.5 0 513.8L0 0Z" fill="#272829"></path></g></svg>