<svg id="visual" viewBox="0 0 900 600" width="900" height="600" xmlns="http://www.w3.org/2000/svg" xmlns:xlink="http://www.w3.org/1999/xlink" version="1.1"><path d="M0 103L15 103C30 103 60 103 90 95C120 87 150 71 180 73C210 75 240 95 270 95C300 95 330 75 360 66C390 57 420 59 450 65C480 71 510 81 540 92C570 103 600 115 630 118C660 121 690 115 720 111C750 107 780 105 810 97C840 89 870 75 885 68L900 61L900 0L885 0C870 0 840 0 810 0C780 0 750 0 720 0C690 0 660 0 630 0C600 0 570 0 540 0C510 0 480 0 450 0C420 0 390 0 360 0C330 0 300 0 270 0C240 0 210 0 180 0C150 0 120 0 90 0C60 0 30 0 15 0L0 0Z" fill="#003baa"></path><path d="M0 169L15 167C30 165 60 161 90 157C120 153 150 149 180 154C210 159 240 173 270 168C300 163 330 139 360 124C390 109 420 103 450 115C480 127 510 157 540 170C570 183 600 179 630 174C660 169 690 163 720 165C750 167 780 177 810 169C840 161 870 135 885 122L900 109L900 59L885 66C870 73 840 87 810 95C780 103 750 105 720 109C690 113 660 119 630 116C600 113 570 101 540 90C510 79 480 69 450 63C420 57 390 55 360 64C330 73 300 93 270 93C240 93 210 73 180 71C150 69 120 85 90 93C60 101 30 101 15 101L0 101Z" fill="#0149d5"></path><path d="M0 229L15 224C30 219 60 209 90 199C120 189 150 179 180 183C210 187 240 205 270 208C300 211 330 199 360 185C390 171 420 155 450 162C480 169 510 199 540 209C570 219 600 209 630 201C660 193 690 187 720 197C750 207 780 233 810 232C840 231 870 203 885 189L900 175L900 107L885 120C870 133 840 159 810 167C780 175 750 165 720 163C690 161 660 167 630 172C600 177 570 181 540 168C510 155 480 125 450 113C420 101 390 107 360 122C330 137 300 161 270 166C240 171 210 157 180 152C150 147 120 151 90 155C60 159 30 163 15 165L0 167Z" fill="#3265ed"></path><path d="M0 247L15 248C30 249 60 251 90 241C120 231 150 209 180 212C210 215 240 243 270 250C300 257 330 243 360 227C390 211 420 193 450 202C480 211 510 247 540 254C570 261 600 239 630 226C660 213 690 209 720 223C750 237 780 269 810 267C840 265 870 229 885 211L900 193L900 173L885 187C870 201 840 229 810 230C780 231 750 205 720 195C690 185 660 191 630 199C600 207 570 217 540 207C510 197 480 167 450 160C420 153 390 169 360 183C330 197 300 209 270 206C240 203 210 185 180 181C150 177 120 187 90 197C60 207 30 217 15 222L0 227Z" fill="#5782f4"></path><path d="M0 385L15 384C30 383 60 381 90 380C120 379 150 379 180 376C210 373 240 367 270 356C300 345 330 329 360 320C390 311 420 309 450 334C480 359 510 411 540 429C570 447 600 431 630 418C660 405 690 395 720 396C750 397 780 409 810 395C840 381 870 341 885 321L900 301L900 191L885 209C870 227 840 263 810 265C780 267 750 235 720 221C690 207 660 211 630 224C600 237 570 259 540 252C510 245 480 209 450 200C420 191 390 209 360 225C330 241 300 255 270 248C240 241 210 213 180 210C150 207 120 229 90 239C60 249 30 247 15 246L0 245Z" fill="#5782f4"></path><path d="M0 427L15 422C30 417 60 407 90 405C120 403 150 409 180 411C210 413 240 411 270 398C300 385 330 361 360 347C390 333 420 329 450 353C480 377 510 429 540 452C570 475 600 469 630 458C660 447 690 431 720 429C750 427 780 439 810 428C840 417 870 383 885 366L900 349L900 299L885 319C870 339 840 379 810 393C780 407 750 395 720 394C690 393 660 403 630 416C600 429 570 445 540 427C510 409 480 357 450 332C420 307 390 309 360 318C330 327 300 343 270 354C240 365 210 371 180 374C150 377 120 377 90 378C60 379 30 381 15 382L0 383Z" fill="#3265ed"></path><path d="M0 523L15 524C30 525 60 527 90 525C120 523 150 517 180 519C210 521 240 531 270 539C300 547 330 553 360 552C390 551 420 543 450 543C480 543 510 551 540 551C570 551 600 543 630 535C660 527 690 519 720 522C750 525 780 539 810 545C840 551 870 549 885 548L900 547L900 347L885 364C870 381 840 415 810 426C780 437 750 425 720 427C690 429 660 445 630 456C600 467 570 473 540 450C510 427 480 375 450 351C420 327 390 331 360 345C330 359 300 383 270 396C240 409 210 411 180 409C150 407 120 401 90 403C60 405 30 415 15 420L0 425Z" fill="#0149d5"></path><path d="M0 601L15 601C30 601 60 601 90 601C120 601 150 601 180 601C210 601 240 601 270 601C300 601 330 601 360 601C390 601 420 601 450 601C480 601 510 601 540 601C570 601 600 601 630 601C660 601 690 601 720 601C750 601 780 601 810 601C840 601 870 601 885 601L900 601L900 545L885 546C870 547 840 549 810 543C780 537 750 523 720 520C690 517 660 525 630 533C600 541 570 549 540 549C510 549 480 541 450 541C420 541 390 549 360 550C330 551 300 545 270 537C240 529 210 519 180 517C150 515 120 521 90 523C60 525 30 523 15 522L0 521Z" fill="#003baa"></path></svg>