<svg id="visual" viewBox="0 0 900 600" width="900" height="600" xmlns="http://www.w3.org/2000/svg" xmlns:xlink="http://www.w3.org/1999/xlink" version="1.1"><path d="M0 445L21.5 443.3C43 441.7 86 438.3 128.8 429.3C171.7 420.3 214.3 405.7 257.2 398.3C300 391 343 391 385.8 397.2C428.7 403.3 471.3 415.7 514.2 420.2C557 424.7 600 421.3 642.8 415.8C685.7 410.3 728.3 402.7 771.2 401.3C814 400 857 405 878.5 407.5L900 410L900 601L878.5 601C857 601 814 601 771.2 601C728.3 601 685.7 601 642.8 601C600 601 557 601 514.2 601C471.3 601 428.7 601 385.8 601C343 601 300 601 257.2 601C214.3 601 171.7 601 128.8 601C86 601 43 601 21.5 601L0 601Z" fill="#054fe6"></path><path d="M0 479L21.5 474.2C43 469.3 86 459.7 128.8 450.3C171.7 441 214.3 432 257.2 433.2C300 434.3 343 445.7 385.8 441.3C428.7 437 471.3 417 514.2 412.3C557 407.7 600 418.3 642.8 422.2C685.7 426 728.3 423 771.2 425.8C814 428.7 857 437.3 878.5 441.7L900 446L900 601L878.5 601C857 601 814 601 771.2 601C728.3 601 685.7 601 642.8 601C600 601 557 601 514.2 601C471.3 601 428.7 601 385.8 601C343 601 300 601 257.2 601C214.3 601 171.7 601 128.8 601C86 601 43 601 21.5 601L0 601Z" fill="#0145e5"></path><path d="M0 511L21.5 502.5C43 494 86 477 128.8 468.3C171.7 459.7 214.3 459.3 257.2 464.2C300 469 343 479 385.8 485.7C428.7 492.3 471.3 495.7 514.2 494.5C557 493.3 600 487.7 642.8 488.2C685.7 488.7 728.3 495.3 771.2 495.2C814 495 857 488 878.5 484.5L900 481L900 601L878.5 601C857 601 814 601 771.2 601C728.3 601 685.7 601 642.8 601C600 601 557 601 514.2 601C471.3 601 428.7 601 385.8 601C343 601 300 601 257.2 601C214.3 601 171.7 601 128.8 601C86 601 43 601 21.5 601L0 601Z" fill="#023fe4"></path><path d="M0 529L21.5 523.3C43 517.7 86 506.3 128.8 501C171.7 495.7 214.3 496.3 257.2 496.7C300 497 343 497 385.8 497.5C428.7 498 471.3 499 514.2 501.2C557 503.3 600 506.7 642.8 505.3C685.7 504 728.3 498 771.2 497.8C814 497.7 857 503.3 878.5 506.2L900 509L900 601L878.5 601C857 601 814 601 771.2 601C728.3 601 685.7 601 642.8 601C600 601 557 601 514.2 601C471.3 601 428.7 601 385.8 601C343 601 300 601 257.2 601C214.3 601 171.7 601 128.8 601C86 601 43 601 21.5 601L0 601Z" fill="#0145e5"></path><path d="M0 568L21.5 567.2C43 566.3 86 564.7 128.8 561.5C171.7 558.3 214.3 553.7 257.2 547.5C300 541.3 343 533.7 385.8 534.2C428.7 534.7 471.3 543.3 514.2 546.7C557 550 600 548 642.8 546.7C685.7 545.3 728.3 544.7 771.2 541.7C814 538.7 857 533.3 878.5 530.7L900 528L900 601L878.5 601C857 601 814 601 771.2 601C728.3 601 685.7 601 642.8 601C600 601 557 601 514.2 601C471.3 601 428.7 601 385.8 601C343 601 300 601 257.2 601C214.3 601 171.7 601 128.8 601C86 601 43 601 21.5 601L0 601Z" fill="#054fe6"></path></svg>