<svg id="visual" viewBox="0 0 900 600" width="900" height="600" xmlns="http://www.w3.org/2000/svg" xmlns:xlink="http://www.w3.org/1999/xlink" version="1.1"><path d="M0 157L21.5 157.5C43 158 86 159 128.8 148.3C171.7 137.7 214.3 115.3 257.2 106.8C300 98.3 343 103.7 385.8 125.5C428.7 147.3 471.3 185.7 514.2 201.8C557 218 600 212 642.8 197.8C685.7 183.7 728.3 161.3 771.2 145.3C814 129.3 857 119.7 878.5 114.8L900 110L900 0L878.5 0C857 0 814 0 771.2 0C728.3 0 685.7 0 642.8 0C600 0 557 0 514.2 0C471.3 0 428.7 0 385.8 0C343 0 300 0 257.2 0C214.3 0 171.7 0 128.8 0C86 0 43 0 21.5 0L0 0Z" fill="#054fe6" stroke-linecap="round" stroke-linejoin="miter"></path></svg>